<mxfile host="app.diagrams.net" agent="Mozilla/5.0 (Windows NT 10.0; Win64; x64) AppleWebKit/537.36 (KHTML, like Gecko) Chrome/125.0.0.0 Safari/537.36" version="24.7.6">
  <diagram id="C5RBs43oDa-KdzZeNtuy" name="Page-1">
    <mxGraphModel dx="1090" dy="679" grid="1" gridSize="10" guides="1" tooltips="1" connect="1" arrows="1" fold="1" page="1" pageScale="1" pageWidth="827" pageHeight="1169" math="0" shadow="0">
      <root>
        <mxCell id="WIyWlLk6GJQsqaUBKTNV-0" />
        <mxCell id="WIyWlLk6GJQsqaUBKTNV-1" parent="WIyWlLk6GJQsqaUBKTNV-0" />
        <mxCell id="XWS5cyPxn0b6OnyD6pv9-0" value="InterestRateSwap" style="swimlane;fontStyle=3;align=center;verticalAlign=top;childLayout=stackLayout;horizontal=1;startSize=26;horizontalStack=0;resizeParent=1;resizeLast=0;collapsible=1;marginBottom=0;rounded=0;shadow=0;strokeWidth=1;fillColor=#dae8fc;strokeColor=#6c8ebf;gradientColor=#7ea6e0;" vertex="1" parent="WIyWlLk6GJQsqaUBKTNV-1">
          <mxGeometry x="220" y="140" width="170" height="470" as="geometry">
            <mxRectangle x="220" y="120" width="160" height="26" as="alternateBounds" />
          </mxGeometry>
        </mxCell>
        <mxCell id="XWS5cyPxn0b6OnyD6pv9-1" value="__init__" style="text;align=center;verticalAlign=top;spacingLeft=4;spacingRight=4;overflow=hidden;rotatable=0;points=[[0,0.5],[1,0.5]];portConstraint=eastwest;fontFamily=Lucida Console;fontStyle=1" vertex="1" parent="XWS5cyPxn0b6OnyD6pv9-0">
          <mxGeometry y="26" width="170" height="26" as="geometry" />
        </mxCell>
        <mxCell id="XWS5cyPxn0b6OnyD6pv9-2" value="self.nominal" style="text;align=left;verticalAlign=top;spacingLeft=4;spacingRight=4;overflow=hidden;rotatable=0;points=[[0,0.5],[1,0.5]];portConstraint=eastwest;fontFamily=Lucida Console;fontStyle=1" vertex="1" parent="XWS5cyPxn0b6OnyD6pv9-0">
          <mxGeometry y="52" width="170" height="26" as="geometry" />
        </mxCell>
        <mxCell id="XWS5cyPxn0b6OnyD6pv9-3" value="self.fixed_leg_dates&#xa;self.floatLeg_dates" style="text;align=left;verticalAlign=top;spacingLeft=4;spacingRight=4;overflow=hidden;rotatable=0;points=[[0,0.5],[1,0.5]];portConstraint=eastwest;rounded=0;shadow=0;html=0;fontStyle=1;fontFamily=Lucida Console;" vertex="1" parent="XWS5cyPxn0b6OnyD6pv9-0">
          <mxGeometry y="78" width="170" height="42" as="geometry" />
        </mxCell>
        <mxCell id="XWS5cyPxn0b6OnyD6pv9-4" value="self.fixed_rate" style="text;align=left;verticalAlign=top;spacingLeft=4;spacingRight=4;overflow=hidden;rotatable=0;points=[[0,0.5],[1,0.5]];portConstraint=eastwest;rounded=0;shadow=0;html=0;fontStyle=1;fontFamily=Lucida Console;" vertex="1" parent="XWS5cyPxn0b6OnyD6pv9-0">
          <mxGeometry y="120" width="170" height="26" as="geometry" />
        </mxCell>
        <mxCell id="XWS5cyPxn0b6OnyD6pv9-5" value="self.side" style="text;align=left;verticalAlign=top;spacingLeft=4;spacingRight=4;overflow=hidden;rotatable=0;points=[[0,0.5],[1,0.5]];portConstraint=eastwest;rounded=0;shadow=0;html=0;fontStyle=1;fontFamily=Lucida Console;" vertex="1" parent="XWS5cyPxn0b6OnyD6pv9-0">
          <mxGeometry y="146" width="170" height="26" as="geometry" />
        </mxCell>
        <mxCell id="XWS5cyPxn0b6OnyD6pv9-6" value="" style="line;html=1;strokeWidth=1;align=left;verticalAlign=middle;spacingTop=-1;spacingLeft=3;spacingRight=3;rotatable=0;labelPosition=right;points=[];portConstraint=eastwest;" vertex="1" parent="XWS5cyPxn0b6OnyD6pv9-0">
          <mxGeometry y="172" width="170" height="16" as="geometry" />
        </mxCell>
        <mxCell id="XWS5cyPxn0b6OnyD6pv9-7" value="&lt;font face=&quot;Lucida Console&quot;&gt;&lt;b&gt;annuity&lt;/b&gt;&lt;/font&gt;&lt;br&gt;&lt;br&gt;&lt;font style=&quot;&quot; face=&quot;Helvetica&quot;&gt;calculate the annuity as&lt;br&gt;of the fixed leg&lt;/font&gt;" style="shape=ext;margin=3;double=1;whiteSpace=wrap;html=1;align=center;" vertex="1" parent="XWS5cyPxn0b6OnyD6pv9-0">
          <mxGeometry y="188" width="170" height="82" as="geometry" />
        </mxCell>
        <mxCell id="XWS5cyPxn0b6OnyD6pv9-8" value="&lt;b&gt;&lt;font face=&quot;Lucida Console&quot;&gt;swap_rate&lt;br&gt;&lt;/font&gt;&lt;/b&gt;&lt;br&gt;calculate the &lt;br&gt;IRS swap rate" style="shape=ext;margin=3;double=1;whiteSpace=wrap;html=1;align=center;" vertex="1" parent="XWS5cyPxn0b6OnyD6pv9-0">
          <mxGeometry y="270" width="170" height="90" as="geometry" />
        </mxCell>
        <mxCell id="XWS5cyPxn0b6OnyD6pv9-9" value="&lt;b&gt;&lt;font face=&quot;Lucida Console&quot;&gt;npv&lt;br&gt;&lt;/font&gt;&lt;/b&gt;&lt;br&gt;calculate the NPV of&lt;br&gt;the swap according to the side of the contract" style="shape=ext;margin=3;double=1;whiteSpace=wrap;html=1;align=center;" vertex="1" parent="XWS5cyPxn0b6OnyD6pv9-0">
          <mxGeometry y="360" width="170" height="110" as="geometry" />
        </mxCell>
        <mxCell id="XWS5cyPxn0b6OnyD6pv9-50" style="edgeStyle=orthogonalEdgeStyle;rounded=0;orthogonalLoop=1;jettySize=auto;html=1;entryX=1;entryY=0.5;entryDx=0;entryDy=0;exitX=0;exitY=0.5;exitDx=0;exitDy=0;" edge="1" parent="WIyWlLk6GJQsqaUBKTNV-1" source="XWS5cyPxn0b6OnyD6pv9-10">
          <mxGeometry relative="1" as="geometry">
            <mxPoint x="476" y="136" as="sourcePoint" />
            <mxPoint x="386" y="239" as="targetPoint" />
            <Array as="points">
              <mxPoint x="436" y="136" />
              <mxPoint x="436" y="239" />
            </Array>
          </mxGeometry>
        </mxCell>
        <mxCell id="XWS5cyPxn0b6OnyD6pv9-10" value="maturity" style="swimlane;fontStyle=0;align=center;verticalAlign=top;childLayout=stackLayout;horizontal=1;startSize=26;horizontalStack=0;resizeParent=1;resizeLast=0;collapsible=1;marginBottom=0;rounded=0;shadow=0;strokeWidth=1;fillColor=#fff2cc;gradientColor=#ffd966;strokeColor=#d6b656;" vertex="1" parent="WIyWlLk6GJQsqaUBKTNV-1">
          <mxGeometry x="480" y="110" width="100" height="52" as="geometry">
            <mxRectangle x="550" y="140" width="160" height="26" as="alternateBounds" />
          </mxGeometry>
        </mxCell>
        <mxCell id="XWS5cyPxn0b6OnyD6pv9-11" value="5y" style="text;align=center;verticalAlign=top;spacingLeft=4;spacingRight=4;overflow=hidden;rotatable=0;points=[[0,0.5],[1,0.5]];portConstraint=eastwest;" vertex="1" parent="XWS5cyPxn0b6OnyD6pv9-10">
          <mxGeometry y="26" width="100" height="26" as="geometry" />
        </mxCell>
        <mxCell id="XWS5cyPxn0b6OnyD6pv9-44" style="edgeStyle=orthogonalEdgeStyle;rounded=0;orthogonalLoop=1;jettySize=auto;html=1;entryX=0;entryY=0.5;entryDx=0;entryDy=0;" edge="1" parent="WIyWlLk6GJQsqaUBKTNV-1" source="XWS5cyPxn0b6OnyD6pv9-13" target="XWS5cyPxn0b6OnyD6pv9-5">
          <mxGeometry relative="1" as="geometry" />
        </mxCell>
        <mxCell id="XWS5cyPxn0b6OnyD6pv9-13" value="Side" style="swimlane;fontStyle=0;align=center;verticalAlign=top;childLayout=stackLayout;horizontal=1;startSize=26;horizontalStack=0;resizeParent=1;resizeLast=0;collapsible=1;marginBottom=0;rounded=0;shadow=0;strokeWidth=1;fillColor=#fff2cc;gradientColor=#ffd966;strokeColor=#d6b656;" vertex="1" parent="WIyWlLk6GJQsqaUBKTNV-1">
          <mxGeometry x="60" y="257" width="110" height="52" as="geometry">
            <mxRectangle x="550" y="140" width="160" height="26" as="alternateBounds" />
          </mxGeometry>
        </mxCell>
        <mxCell id="XWS5cyPxn0b6OnyD6pv9-14" value="Payer / Receiver" style="text;align=center;verticalAlign=top;spacingLeft=4;spacingRight=4;overflow=hidden;rotatable=0;points=[[0,0.5],[1,0.5]];portConstraint=eastwest;" vertex="1" parent="XWS5cyPxn0b6OnyD6pv9-13">
          <mxGeometry y="26" width="110" height="26" as="geometry" />
        </mxCell>
        <mxCell id="XWS5cyPxn0b6OnyD6pv9-15" value="start_date" style="swimlane;fontStyle=0;align=center;verticalAlign=top;childLayout=stackLayout;horizontal=1;startSize=26;horizontalStack=0;resizeParent=1;resizeLast=0;collapsible=1;marginBottom=0;rounded=0;shadow=0;strokeWidth=1;fillColor=#fff2cc;gradientColor=#ffd966;strokeColor=#d6b656;" vertex="1" parent="WIyWlLk6GJQsqaUBKTNV-1">
          <mxGeometry x="480" y="40" width="100" height="52" as="geometry">
            <mxRectangle x="550" y="140" width="160" height="26" as="alternateBounds" />
          </mxGeometry>
        </mxCell>
        <mxCell id="XWS5cyPxn0b6OnyD6pv9-16" value="2024-01-01" style="text;align=center;verticalAlign=top;spacingLeft=4;spacingRight=4;overflow=hidden;rotatable=0;points=[[0,0.5],[1,0.5]];portConstraint=eastwest;" vertex="1" parent="XWS5cyPxn0b6OnyD6pv9-15">
          <mxGeometry y="26" width="100" height="26" as="geometry" />
        </mxCell>
        <mxCell id="XWS5cyPxn0b6OnyD6pv9-19" style="edgeStyle=orthogonalEdgeStyle;rounded=0;orthogonalLoop=1;jettySize=auto;html=1;entryX=0;entryY=0.25;entryDx=0;entryDy=0;fillColor=#0050ef;strokeColor=#001DBC;" edge="1" parent="WIyWlLk6GJQsqaUBKTNV-1" source="XWS5cyPxn0b6OnyD6pv9-20" target="XWS5cyPxn0b6OnyD6pv9-7">
          <mxGeometry relative="1" as="geometry" />
        </mxCell>
        <mxCell id="XWS5cyPxn0b6OnyD6pv9-74" style="edgeStyle=orthogonalEdgeStyle;rounded=0;orthogonalLoop=1;jettySize=auto;html=1;entryX=0;entryY=0.25;entryDx=0;entryDy=0;fillColor=#0050ef;strokeColor=#001DBC;" edge="1" parent="WIyWlLk6GJQsqaUBKTNV-1" source="XWS5cyPxn0b6OnyD6pv9-20" target="XWS5cyPxn0b6OnyD6pv9-8">
          <mxGeometry relative="1" as="geometry" />
        </mxCell>
        <mxCell id="XWS5cyPxn0b6OnyD6pv9-20" value="DiscountCurve" style="swimlane;fontStyle=0;align=center;verticalAlign=top;childLayout=stackLayout;horizontal=1;startSize=26;horizontalStack=0;resizeParent=1;resizeLast=0;collapsible=1;marginBottom=0;rounded=0;shadow=0;strokeWidth=1;fillColor=#0050ef;strokeColor=#001DBC;fontColor=#ffffff;" vertex="1" parent="WIyWlLk6GJQsqaUBKTNV-1">
          <mxGeometry x="20" y="371" width="130" height="52" as="geometry">
            <mxRectangle x="550" y="140" width="160" height="26" as="alternateBounds" />
          </mxGeometry>
        </mxCell>
        <mxCell id="XWS5cyPxn0b6OnyD6pv9-21" value="..." style="text;align=center;verticalAlign=top;spacingLeft=4;spacingRight=4;overflow=hidden;rotatable=0;points=[[0,0.5],[1,0.5]];portConstraint=eastwest;" vertex="1" parent="XWS5cyPxn0b6OnyD6pv9-20">
          <mxGeometry y="26" width="130" height="26" as="geometry" />
        </mxCell>
        <mxCell id="XWS5cyPxn0b6OnyD6pv9-23" value="annutiy" style="ellipse;whiteSpace=wrap;html=1;align=center;fillColor=#d5e8d4;gradientColor=#97d077;strokeColor=#82b366;" vertex="1" parent="WIyWlLk6GJQsqaUBKTNV-1">
          <mxGeometry x="480" y="346" width="100" height="46" as="geometry" />
        </mxCell>
        <mxCell id="XWS5cyPxn0b6OnyD6pv9-25" style="edgeStyle=orthogonalEdgeStyle;rounded=0;orthogonalLoop=1;jettySize=auto;html=1;entryX=0;entryY=0.5;entryDx=0;entryDy=0;exitX=1.04;exitY=-0.115;exitDx=0;exitDy=0;exitPerimeter=0;" edge="1" parent="WIyWlLk6GJQsqaUBKTNV-1" source="XWS5cyPxn0b6OnyD6pv9-27" target="XWS5cyPxn0b6OnyD6pv9-2">
          <mxGeometry relative="1" as="geometry">
            <Array as="points">
              <mxPoint x="200" y="115" />
              <mxPoint x="200" y="205" />
            </Array>
          </mxGeometry>
        </mxCell>
        <mxCell id="XWS5cyPxn0b6OnyD6pv9-26" value="nominal" style="swimlane;fontStyle=0;align=center;verticalAlign=top;childLayout=stackLayout;horizontal=1;startSize=26;horizontalStack=0;resizeParent=1;resizeLast=0;collapsible=1;marginBottom=0;rounded=0;shadow=0;strokeWidth=1;fillColor=#fff2cc;gradientColor=#ffd966;strokeColor=#d6b656;" vertex="1" parent="WIyWlLk6GJQsqaUBKTNV-1">
          <mxGeometry x="65" y="92" width="100" height="52" as="geometry">
            <mxRectangle x="550" y="140" width="160" height="26" as="alternateBounds" />
          </mxGeometry>
        </mxCell>
        <mxCell id="XWS5cyPxn0b6OnyD6pv9-27" value="1000000" style="text;align=center;verticalAlign=top;spacingLeft=4;spacingRight=4;overflow=hidden;rotatable=0;points=[[0,0.5],[1,0.5]];portConstraint=eastwest;" vertex="1" parent="XWS5cyPxn0b6OnyD6pv9-26">
          <mxGeometry y="26" width="100" height="26" as="geometry" />
        </mxCell>
        <mxCell id="XWS5cyPxn0b6OnyD6pv9-43" style="edgeStyle=orthogonalEdgeStyle;rounded=0;orthogonalLoop=1;jettySize=auto;html=1;entryX=0;entryY=0.5;entryDx=0;entryDy=0;exitX=1;exitY=0.077;exitDx=0;exitDy=0;exitPerimeter=0;" edge="1" parent="WIyWlLk6GJQsqaUBKTNV-1" source="XWS5cyPxn0b6OnyD6pv9-30" target="XWS5cyPxn0b6OnyD6pv9-4">
          <mxGeometry relative="1" as="geometry" />
        </mxCell>
        <mxCell id="XWS5cyPxn0b6OnyD6pv9-29" value="rate" style="swimlane;fontStyle=0;align=center;verticalAlign=top;childLayout=stackLayout;horizontal=1;startSize=26;horizontalStack=0;resizeParent=1;resizeLast=0;collapsible=1;marginBottom=0;rounded=0;shadow=0;strokeWidth=1;fillColor=#fff2cc;gradientColor=#ffd966;strokeColor=#d6b656;" vertex="1" parent="WIyWlLk6GJQsqaUBKTNV-1">
          <mxGeometry x="75" y="180" width="80" height="52" as="geometry">
            <mxRectangle x="550" y="140" width="160" height="26" as="alternateBounds" />
          </mxGeometry>
        </mxCell>
        <mxCell id="XWS5cyPxn0b6OnyD6pv9-30" value="0.035" style="text;align=center;verticalAlign=top;spacingLeft=4;spacingRight=4;overflow=hidden;rotatable=0;points=[[0,0.5],[1,0.5]];portConstraint=eastwest;" vertex="1" parent="XWS5cyPxn0b6OnyD6pv9-29">
          <mxGeometry y="26" width="80" height="26" as="geometry" />
        </mxCell>
        <mxCell id="XWS5cyPxn0b6OnyD6pv9-37" value="swap rate" style="ellipse;whiteSpace=wrap;html=1;align=center;fillColor=#d5e8d4;gradientColor=#97d077;strokeColor=#82b366;" vertex="1" parent="WIyWlLk6GJQsqaUBKTNV-1">
          <mxGeometry x="480" y="432" width="100" height="46" as="geometry" />
        </mxCell>
        <mxCell id="XWS5cyPxn0b6OnyD6pv9-39" value="NPV" style="ellipse;whiteSpace=wrap;html=1;align=center;fillColor=#d5e8d4;gradientColor=#97d077;strokeColor=#82b366;" vertex="1" parent="WIyWlLk6GJQsqaUBKTNV-1">
          <mxGeometry x="480" y="532" width="100" height="46" as="geometry" />
        </mxCell>
        <mxCell id="XWS5cyPxn0b6OnyD6pv9-51" style="edgeStyle=orthogonalEdgeStyle;rounded=0;orthogonalLoop=1;jettySize=auto;html=1;entryX=1;entryY=0.5;entryDx=0;entryDy=0;" edge="1" parent="WIyWlLk6GJQsqaUBKTNV-1" source="XWS5cyPxn0b6OnyD6pv9-45" target="XWS5cyPxn0b6OnyD6pv9-3">
          <mxGeometry relative="1" as="geometry">
            <Array as="points">
              <mxPoint x="530" y="239" />
            </Array>
          </mxGeometry>
        </mxCell>
        <mxCell id="XWS5cyPxn0b6OnyD6pv9-45" value="fixed freq." style="swimlane;fontStyle=0;align=center;verticalAlign=top;childLayout=stackLayout;horizontal=1;startSize=26;horizontalStack=0;resizeParent=1;resizeLast=0;collapsible=1;marginBottom=0;rounded=0;shadow=0;strokeWidth=1;fillColor=#fff2cc;gradientColor=#ffd966;strokeColor=#d6b656;" vertex="1" parent="WIyWlLk6GJQsqaUBKTNV-1">
          <mxGeometry x="480" y="180" width="100" height="52" as="geometry">
            <mxRectangle x="550" y="140" width="160" height="26" as="alternateBounds" />
          </mxGeometry>
        </mxCell>
        <mxCell id="XWS5cyPxn0b6OnyD6pv9-46" value="1y" style="text;align=center;verticalAlign=top;spacingLeft=4;spacingRight=4;overflow=hidden;rotatable=0;points=[[0,0.5],[1,0.5]];portConstraint=eastwest;" vertex="1" parent="XWS5cyPxn0b6OnyD6pv9-45">
          <mxGeometry y="26" width="100" height="26" as="geometry" />
        </mxCell>
        <mxCell id="XWS5cyPxn0b6OnyD6pv9-52" style="edgeStyle=orthogonalEdgeStyle;rounded=0;orthogonalLoop=1;jettySize=auto;html=1;entryX=1;entryY=0.5;entryDx=0;entryDy=0;" edge="1" parent="WIyWlLk6GJQsqaUBKTNV-1" source="XWS5cyPxn0b6OnyD6pv9-47" target="XWS5cyPxn0b6OnyD6pv9-3">
          <mxGeometry relative="1" as="geometry" />
        </mxCell>
        <mxCell id="XWS5cyPxn0b6OnyD6pv9-47" value="float freq." style="swimlane;fontStyle=0;align=center;verticalAlign=top;childLayout=stackLayout;horizontal=1;startSize=26;horizontalStack=0;resizeParent=1;resizeLast=0;collapsible=1;marginBottom=0;rounded=0;shadow=0;strokeWidth=1;fillColor=#fff2cc;gradientColor=#ffd966;strokeColor=#d6b656;" vertex="1" parent="WIyWlLk6GJQsqaUBKTNV-1">
          <mxGeometry x="480" y="250" width="100" height="52" as="geometry">
            <mxRectangle x="550" y="140" width="160" height="26" as="alternateBounds" />
          </mxGeometry>
        </mxCell>
        <mxCell id="XWS5cyPxn0b6OnyD6pv9-48" value="3m" style="text;align=center;verticalAlign=top;spacingLeft=4;spacingRight=4;overflow=hidden;rotatable=0;points=[[0,0.5],[1,0.5]];portConstraint=eastwest;" vertex="1" parent="XWS5cyPxn0b6OnyD6pv9-47">
          <mxGeometry y="26" width="100" height="26" as="geometry" />
        </mxCell>
        <mxCell id="XWS5cyPxn0b6OnyD6pv9-49" style="edgeStyle=orthogonalEdgeStyle;rounded=0;orthogonalLoop=1;jettySize=auto;html=1;entryX=1;entryY=0.5;entryDx=0;entryDy=0;" edge="1" parent="WIyWlLk6GJQsqaUBKTNV-1" source="XWS5cyPxn0b6OnyD6pv9-16" target="XWS5cyPxn0b6OnyD6pv9-3">
          <mxGeometry relative="1" as="geometry" />
        </mxCell>
        <mxCell id="XWS5cyPxn0b6OnyD6pv9-76" style="edgeStyle=orthogonalEdgeStyle;rounded=0;orthogonalLoop=1;jettySize=auto;html=1;entryX=0;entryY=0.75;entryDx=0;entryDy=0;strokeColor=#FF0000;" edge="1" parent="WIyWlLk6GJQsqaUBKTNV-1" source="XWS5cyPxn0b6OnyD6pv9-53" target="XWS5cyPxn0b6OnyD6pv9-8">
          <mxGeometry relative="1" as="geometry" />
        </mxCell>
        <mxCell id="XWS5cyPxn0b6OnyD6pv9-77" style="edgeStyle=orthogonalEdgeStyle;rounded=0;orthogonalLoop=1;jettySize=auto;html=1;entryX=0;entryY=0.75;entryDx=0;entryDy=0;strokeColor=#FF3333;" edge="1" parent="WIyWlLk6GJQsqaUBKTNV-1" source="XWS5cyPxn0b6OnyD6pv9-53" target="XWS5cyPxn0b6OnyD6pv9-9">
          <mxGeometry relative="1" as="geometry" />
        </mxCell>
        <mxCell id="XWS5cyPxn0b6OnyD6pv9-53" value="TermStructure" style="swimlane;fontStyle=0;align=center;verticalAlign=top;childLayout=stackLayout;horizontal=1;startSize=26;horizontalStack=0;resizeParent=1;resizeLast=0;collapsible=1;marginBottom=0;rounded=0;shadow=0;strokeWidth=1;fillColor=#e51400;strokeColor=#B20000;fontColor=#ffffff;" vertex="1" parent="WIyWlLk6GJQsqaUBKTNV-1">
          <mxGeometry x="20" y="463" width="130" height="52" as="geometry">
            <mxRectangle x="550" y="140" width="160" height="26" as="alternateBounds" />
          </mxGeometry>
        </mxCell>
        <mxCell id="XWS5cyPxn0b6OnyD6pv9-54" value="..." style="text;align=center;verticalAlign=top;spacingLeft=4;spacingRight=4;overflow=hidden;rotatable=0;points=[[0,0.5],[1,0.5]];portConstraint=eastwest;" vertex="1" parent="XWS5cyPxn0b6OnyD6pv9-53">
          <mxGeometry y="26" width="130" height="26" as="geometry" />
        </mxCell>
        <mxCell id="XWS5cyPxn0b6OnyD6pv9-65" style="edgeStyle=orthogonalEdgeStyle;rounded=0;orthogonalLoop=1;jettySize=auto;html=1;entryX=0;entryY=0.5;entryDx=0;entryDy=0;" edge="1" parent="WIyWlLk6GJQsqaUBKTNV-1" source="XWS5cyPxn0b6OnyD6pv9-7" target="XWS5cyPxn0b6OnyD6pv9-23">
          <mxGeometry relative="1" as="geometry" />
        </mxCell>
        <mxCell id="XWS5cyPxn0b6OnyD6pv9-66" style="edgeStyle=orthogonalEdgeStyle;rounded=0;orthogonalLoop=1;jettySize=auto;html=1;entryX=0;entryY=0.5;entryDx=0;entryDy=0;" edge="1" parent="WIyWlLk6GJQsqaUBKTNV-1" source="XWS5cyPxn0b6OnyD6pv9-8" target="XWS5cyPxn0b6OnyD6pv9-37">
          <mxGeometry relative="1" as="geometry" />
        </mxCell>
        <mxCell id="XWS5cyPxn0b6OnyD6pv9-67" style="edgeStyle=orthogonalEdgeStyle;rounded=0;orthogonalLoop=1;jettySize=auto;html=1;entryX=0;entryY=0.5;entryDx=0;entryDy=0;" edge="1" parent="WIyWlLk6GJQsqaUBKTNV-1" source="XWS5cyPxn0b6OnyD6pv9-9" target="XWS5cyPxn0b6OnyD6pv9-39">
          <mxGeometry relative="1" as="geometry" />
        </mxCell>
        <mxCell id="XWS5cyPxn0b6OnyD6pv9-75" style="edgeStyle=orthogonalEdgeStyle;rounded=0;orthogonalLoop=1;jettySize=auto;html=1;entryX=0.006;entryY=0.318;entryDx=0;entryDy=0;entryPerimeter=0;fillColor=#0050ef;strokeColor=#001DBC;" edge="1" parent="WIyWlLk6GJQsqaUBKTNV-1" source="XWS5cyPxn0b6OnyD6pv9-20" target="XWS5cyPxn0b6OnyD6pv9-9">
          <mxGeometry relative="1" as="geometry" />
        </mxCell>
      </root>
    </mxGraphModel>
  </diagram>
</mxfile>
